<?xml version="1.0" encoding="utf-8"?>
<!-- Generator: Adobe Illustrator 26.5.0, SVG Export Plug-In . SVG Version: 6.00 Build 0)  -->
<svg version="1.0" id="图层_1" xmlns="http://www.w3.org/2000/svg" xmlns:xlink="http://www.w3.org/1999/xlink" x="0px" y="0px"
	 viewBox="0 0 60 60" style="enable-background:new 0 0 60 60;" xml:space="preserve">
<style type="text/css">
	.st0{fill:#FFFFFF;}
</style>
<g>
	<path class="st0" d="M28,1.7c1.5,3.9,3.9,13.5,5.8,23.5l1.1,6.4C40.6,20.2,42,16.8,42,14.2c0-1.2-0.4-1.9-2.1-3
		c-2.1-1.5-2.7-2.6-2.7-4.7c0-2.5,2.2-4.8,4.7-4.8c2.9,0,5.4,2.5,5.4,5.5c0,8.6-10,28.7-20.9,42.2C22,55,16.4,58.3,11.7,58.3
		c-2.9,0-5.2-2.2-5.2-5.1c0-2.4,2-4.6,4.2-4.6c1.4,0,3.8,0.8,4.9,1.6c0.9,0.8,2.4,1.4,3.1,1.4c3.2,0,7.8-6.1,7.8-10.2
		c0-2.7-1.5-11.3-4.4-24.5c-1.3-6.1-2.7-9.5-4.2-10.4c-0.5-0.3-1-0.4-2.5-0.4V3.7C20.8,3.2,23.9,2.7,28,1.7z"/>
</g>
</svg>
