<?xml version="1.0" encoding="utf-8"?>
<!-- Generator: Adobe Illustrator 26.5.0, SVG Export Plug-In . SVG Version: 6.00 Build 0)  -->
<svg version="1.0" xmlns="http://www.w3.org/2000/svg" xmlns:xlink="http://www.w3.org/1999/xlink" x="0px" y="0px"
	 viewBox="0 0 1000 1000" style="enable-background:new 0 0 1000 1000;" xml:space="preserve">
<style type="text/css">
	.st0{display:none;}
	.st1{display:inline;}
	.st2{fill:#29ABE2;}
	.st3{fill:#035EDD;}
</style>
<g id="图层_1" class="st0">
	<g class="st1">
		<g>
			<path class="st2" d="M465.9,73.2c22,58.1,58.1,202.8,86.6,354l16.8,95.6c86.6-170.5,108.5-222.2,108.5-261
				c0-18.1-6.5-28.4-31-45.2c-31-23.3-40-38.8-40-71.1c0-37.5,33.6-72.3,71.1-72.3c43.9,0,81.4,37.5,81.4,82.7
				c0,129.2-149.9,431.5-315.2,635.6c-68.5,84-152.4,134.4-223.5,134.4c-43.9,0-78.8-33.6-78.8-77.5c0-36.2,29.7-69.8,63.3-69.8
				c20.7,0,56.8,11.6,73.6,24.5c14.2,11.6,36.2,20.7,46.5,20.7c47.8,0,117.6-91.7,117.6-153.7c0-40-23.3-170.5-65.9-369.5
				c-19.4-91.7-41.3-143.4-63.3-156.3c-7.8-5.2-15.5-6.5-37.5-6.5v-33.6C358.7,96.5,405.2,88.7,465.9,73.2z"/>
		</g>
		<g>
			<path class="st3" d="M465.9,73.2c22,58.1,58.1,202.8,86.6,354l16.8,95.6c86.6-170.5,108.5-222.2,108.5-261
				c0-18.1-6.5-28.4-31-45.2c-31-23.3-40-38.8-40-71.1c0-37.5,33.6-72.3,71.1-72.3c43.9,0,81.4,37.5,81.4,82.7
				c0,129.2-149.9,431.5-315.2,635.6c-68.5,84-152.4,134.4-223.5,134.4c-43.9,0-78.8-33.6-78.8-77.5c0-36.2,29.7-69.8,63.3-69.8
				c20.7,0,56.8,11.6,73.6,24.5c14.2,11.6,36.2,20.7,46.5,20.7c47.8,0,117.6-91.7,117.6-153.7c0-40-23.3-170.5-65.9-369.5
				c-19.4-91.7-41.3-143.4-63.3-156.3c-7.8-5.2-15.5-6.5-37.5-6.5v-33.6C358.7,96.5,405.2,88.7,465.9,73.2z"/>
		</g>
	</g>
</g>
<g id="图层_2">
	<g>
		<path d="M220.1,421.5V596H98v-34.9h69.8v-17.4H98V421.5h52.3v87.2h17.4v-87.2H220.1z"/>
		<path d="M359.7,421.5V596H237.6v-34.9h69.8v-17.4h-69.8V421.5h52.3v87.2h17.4v-87.2H359.7z"/>
		<path d="M378.5,551v-90.4h90.4v-20.1h-40.2v10h-50.2v-40.2h140.7v90.4h-90.4v20.1h90.4V551H378.5z"/>
		<path d="M584.2,404v31.4H647v125.6H537.1V404H584.2z M584.2,466.8v62.8h15.7v-62.8H584.2z"/>
		<path d="M664.9,551v-90.4h90.4v-20.1h-40.2v10h-50.2v-40.2h140.7v90.4h-90.4v20.1h90.4V551H664.9z"/>
		<path d="M870.6,529.7H902v31.4h-78.5V404h47.1v31.4H902v31.4h-31.4V529.7z"/>
	</g>
</g>
</svg>
